<svg id="visual" viewBox="0 0 900 600" width="900" height="600" xmlns="http://www.w3.org/2000/svg" xmlns:xlink="http://www.w3.org/1999/xlink" version="1.1"><g fill="#3b0b07"><circle r="16" cx="530" cy="472"></circle><circle r="4" cx="799" cy="257"></circle><circle r="7" cx="328" cy="279"></circle><circle r="6" cx="374" cy="93"></circle><circle r="11" cx="579" cy="271"></circle><circle r="8" cx="662" cy="324"></circle><circle r="6" cx="815" cy="343"></circle><circle r="7" cx="856" cy="151"></circle><circle r="3" cx="9" cy="252"></circle><circle r="8" cx="454" cy="295"></circle><circle r="5" cx="427" cy="156"></circle><circle r="3" cx="634" cy="149"></circle><circle r="7" cx="223" cy="454"></circle><circle r="10" cx="355" cy="303"></circle><circle r="5" cx="677" cy="48"></circle><circle r="11" cx="689" cy="211"></circle><circle r="3" cx="481" cy="491"></circle><circle r="12" cx="581" cy="542"></circle><circle r="6" cx="378" cy="157"></circle><circle r="11" cx="79" cy="461"></circle><circle r="7" cx="721" cy="580"></circle><circle r="4" cx="194" cy="586"></circle><circle r="5" cx="214" cy="349"></circle><circle r="8" cx="435" cy="120"></circle><circle r="4" cx="142" cy="317"></circle><circle r="5" cx="475" cy="376"></circle><circle r="12" cx="746" cy="508"></circle><circle r="11" cx="62" cy="90"></circle><circle r="14" cx="431" cy="393"></circle><circle r="5" cx="134" cy="406"></circle><circle r="9" cx="734" cy="249"></circle><circle r="14" cx="45" cy="256"></circle><circle r="8" cx="811" cy="286"></circle><circle r="14" cx="119" cy="150"></circle><circle r="8" cx="327" cy="161"></circle><circle r="13" cx="467" cy="562"></circle><circle r="7" cx="123" cy="464"></circle><circle r="10" cx="414" cy="80"></circle><circle r="9" cx="767" cy="298"></circle><circle r="11" cx="521" cy="238"></circle><circle r="9" cx="835" cy="29"></circle><circle r="7" cx="11" cy="311"></circle><circle r="6" cx="559" cy="29"></circle><circle r="3" cx="755" cy="175"></circle><circle r="4" cx="542" cy="507"></circle><circle r="9" cx="808" cy="196"></circle><circle r="11" cx="227" cy="381"></circle><circle r="3" cx="466" cy="153"></circle><circle r="14" cx="518" cy="35"></circle><circle r="8" cx="665" cy="464"></circle><circle r="12" cx="323" cy="316"></circle><circle r="8" cx="234" cy="495"></circle><circle r="9" cx="322" cy="372"></circle><circle r="8" cx="861" cy="390"></circle><circle r="9" cx="841" cy="539"></circle><circle r="5" cx="284" cy="48"></circle><circle r="6" cx="223" cy="177"></circle><circle r="4" cx="353" cy="559"></circle><circle r="9" cx="758" cy="430"></circle><circle r="10" cx="616" cy="57"></circle><circle r="5" cx="191" cy="180"></circle><circle r="6" cx="554" cy="346"></circle><circle r="3" cx="780" cy="134"></circle><circle r="14" cx="271" cy="95"></circle><circle r="11" cx="102" cy="58"></circle><circle r="6" cx="818" cy="470"></circle><circle r="11" cx="13" cy="546"></circle><circle r="13" cx="58" cy="295"></circle><circle r="14" cx="550" cy="439"></circle><circle r="7" cx="647" cy="594"></circle><circle r="8" cx="240" cy="326"></circle><circle r="8" cx="754" cy="4"></circle><circle r="11" cx="3" cy="452"></circle><circle r="4" cx="165" cy="205"></circle><circle r="7" cx="573" cy="485"></circle><circle r="3" cx="290" cy="361"></circle><circle r="13" cx="768" cy="364"></circle><circle r="9" cx="154" cy="495"></circle><circle r="12" cx="255" cy="29"></circle><circle r="13" cx="50" cy="447"></circle><circle r="5" cx="730" cy="464"></circle><circle r="5" cx="880" cy="284"></circle><circle r="13" cx="520" cy="411"></circle><circle r="4" cx="231" cy="555"></circle><circle r="9" cx="893" cy="98"></circle><circle r="13" cx="138" cy="370"></circle><circle r="10" cx="428" cy="593"></circle><circle r="13" cx="447" cy="13"></circle><circle r="3" cx="320" cy="123"></circle><circle r="10" cx="681" cy="111"></circle><circle r="9" cx="668" cy="554"></circle><circle r="13" cx="701" cy="341"></circle><circle r="7" cx="33" cy="55"></circle><circle r="10" cx="666" cy="171"></circle><circle r="5" cx="497" cy="86"></circle><circle r="8" cx="407" cy="329"></circle><circle r="13" cx="20" cy="160"></circle><circle r="9" cx="220" cy="291"></circle><circle r="3" cx="590" cy="392"></circle><circle r="14" cx="232" cy="73"></circle><circle r="10" cx="418" cy="450"></circle><circle r="8" cx="214" cy="140"></circle><circle r="10" cx="380" cy="221"></circle><circle r="13" cx="790" cy="71"></circle><circle r="14" cx="705" cy="133"></circle><circle r="6" cx="386" cy="552"></circle><circle r="10" cx="450" cy="535"></circle><circle r="8" cx="165" cy="260"></circle><circle r="3" cx="471" cy="226"></circle><circle r="4" cx="85" cy="124"></circle><circle r="5" cx="429" cy="227"></circle><circle r="7" cx="892" cy="447"></circle><circle r="9" cx="789" cy="8"></circle><circle r="8" cx="677" cy="270"></circle><circle r="13" cx="7" cy="86"></circle><circle r="3" cx="346" cy="60"></circle><circle r="5" cx="311" cy="83"></circle><circle r="8" cx="325" cy="575"></circle><circle r="9" cx="148" cy="527"></circle><circle r="7" cx="795" cy="495"></circle><circle r="12" cx="37" cy="215"></circle><circle r="13" cx="289" cy="423"></circle><circle r="10" cx="330" cy="462"></circle><circle r="7" cx="634" cy="408"></circle><circle r="9" cx="731" cy="333"></circle><circle r="4" cx="895" cy="243"></circle><circle r="4" cx="772" cy="556"></circle><circle r="7" cx="800" cy="389"></circle><circle r="3" cx="623" cy="211"></circle><circle r="9" cx="768" cy="236"></circle><circle r="7" cx="191" cy="30"></circle><circle r="12" cx="388" cy="584"></circle><circle r="9" cx="9" cy="489"></circle><circle r="9" cx="69" cy="191"></circle><circle r="4" cx="644" cy="275"></circle><circle r="14" cx="53" cy="20"></circle><circle r="3" cx="819" cy="585"></circle><circle r="6" cx="173" cy="392"></circle><circle r="14" cx="523" cy="532"></circle><circle r="7" cx="660" cy="19"></circle><circle r="12" cx="358" cy="357"></circle><circle r="13" cx="95" cy="551"></circle><circle r="11" cx="398" cy="188"></circle><circle r="9" cx="535" cy="89"></circle><circle r="5" cx="102" cy="303"></circle><circle r="14" cx="469" cy="409"></circle><circle r="8" cx="223" cy="3"></circle><circle r="4" cx="871" cy="591"></circle><circle r="14" cx="408" cy="529"></circle><circle r="3" cx="257" cy="251"></circle><circle r="6" cx="709" cy="286"></circle><circle r="7" cx="462" cy="54"></circle><circle r="14" cx="289" cy="459"></circle><circle r="14" cx="50" cy="488"></circle><circle r="11" cx="102" cy="357"></circle><circle r="7" cx="551" cy="124"></circle><circle r="5" cx="892" cy="348"></circle><circle r="11" cx="489" cy="261"></circle><circle r="4" cx="523" cy="327"></circle><circle r="8" cx="647" cy="513"></circle><circle r="4" cx="130" cy="90"></circle><circle r="13" cx="407" cy="274"></circle><circle r="5" cx="5" cy="200"></circle><circle r="10" cx="337" cy="525"></circle><circle r="8" cx="411" cy="368"></circle><circle r="4" cx="507" cy="145"></circle><circle r="12" cx="529" cy="191"></circle><circle r="8" cx="531" cy="271"></circle><circle r="8" cx="587" cy="594"></circle><circle r="8" cx="723" cy="90"></circle><circle r="11" cx="832" cy="173"></circle><circle r="3" cx="98" cy="420"></circle><circle r="4" cx="149" cy="121"></circle><circle r="14" cx="745" cy="141"></circle><circle r="5" cx="618" cy="468"></circle><circle r="14" cx="448" cy="499"></circle><circle r="11" cx="251" cy="432"></circle><circle r="4" cx="301" cy="599"></circle><circle r="4" cx="714" cy="5"></circle><circle r="12" cx="622" cy="312"></circle><circle r="7" cx="823" cy="57"></circle><circle r="10" cx="723" cy="181"></circle><circle r="8" cx="616" cy="516"></circle><circle r="14" cx="881" cy="212"></circle><circle r="13" cx="269" cy="182"></circle><circle r="8" cx="827" cy="510"></circle><circle r="10" cx="101" cy="598"></circle><circle r="8" cx="89" cy="501"></circle><circle r="7" cx="141" cy="229"></circle><circle r="11" cx="841" cy="230"></circle><circle r="12" cx="271" cy="502"></circle><circle r="9" cx="334" cy="192"></circle><circle r="6" cx="485" cy="329"></circle><circle r="12" cx="200" cy="498"></circle><circle r="3" cx="16" cy="9"></circle><circle r="4" cx="707" cy="401"></circle><circle r="5" cx="351" cy="438"></circle><circle r="14" cx="883" cy="168"></circle><circle r="9" cx="754" cy="95"></circle><circle r="12" cx="106" cy="256"></circle><circle r="5" cx="848" cy="317"></circle><circle r="7" cx="484" cy="4"></circle><circle r="13" cx="452" cy="332"></circle><circle r="11" cx="134" cy="277"></circle><circle r="11" cx="523" cy="589"></circle><circle r="7" cx="70" cy="388"></circle><circle r="6" cx="564" cy="190"></circle><circle r="5" cx="728" cy="48"></circle><circle r="8" cx="344" cy="236"></circle><circle r="11" cx="205" cy="253"></circle><circle r="7" cx="631" cy="100"></circle><circle r="12" cx="167" cy="51"></circle><circle r="4" cx="162" cy="590"></circle><circle r="10" cx="844" cy="279"></circle><circle r="13" cx="487" cy="439"></circle><circle r="4" cx="256" cy="535"></circle><circle r="13" cx="201" cy="86"></circle><circle r="6" cx="272" cy="308"></circle><circle r="13" cx="403" cy="113"></circle><circle r="3" cx="354" cy="19"></circle><circle r="5" cx="196" cy="424"></circle><circle r="10" cx="611" cy="125"></circle><circle r="4" cx="29" cy="418"></circle><circle r="11" cx="876" cy="478"></circle><circle r="12" cx="38" cy="363"></circle><circle r="7" cx="196" cy="545"></circle><circle r="4" cx="712" cy="436"></circle><circle r="14" cx="196" cy="213"></circle><circle r="4" cx="189" cy="290"></circle><circle r="4" cx="576" cy="72"></circle><circle r="12" cx="883" cy="530"></circle><circle r="4" cx="276" cy="221"></circle><circle r="6" cx="695" cy="489"></circle></g></svg>