<svg id="visual" viewBox="0 0 900 600" width="900" height="600" xmlns="http://www.w3.org/2000/svg" xmlns:xlink="http://www.w3.org/1999/xlink" version="1.1"><g><g transform="translate(332 411)"><path d="M0 -13.1L10.3 -8.2L12.8 2.9L5.7 11.8L-5.7 11.8L-12.8 2.9L-10.3 -8.2Z" fill="#dc143c"></path></g><g transform="translate(699 175)"><path d="M0 -9L7 -5.6L8.8 2L3.9 8.1L-3.9 8.1L-8.8 2L-7 -5.6Z" fill="#dc143c"></path></g><g transform="translate(590 275)"><path d="M0 -8L6.3 -5L7.8 1.8L3.5 7.2L-3.5 7.2L-7.8 1.8L-6.3 -5Z" fill="#dc143c"></path></g><g transform="translate(618 472)"><path d="M0 -9L7 -5.6L8.8 2L3.9 8.1L-3.9 8.1L-8.8 2L-7 -5.6Z" fill="#dc143c"></path></g><g transform="translate(158 539)"><path d="M0 -12L9.4 -7.5L11.7 2.7L5.2 10.8L-5.2 10.8L-11.7 2.7L-9.4 -7.5Z" fill="#dc143c"></path></g><g transform="translate(223 427)"><path d="M0 -8L6.3 -5L7.8 1.8L3.5 7.2L-3.5 7.2L-7.8 1.8L-6.3 -5Z" fill="#dc143c"></path></g><g transform="translate(570 521)"><path d="M0 -10L7.8 -6.2L9.7 2.2L4.3 9L-4.3 9L-9.7 2.2L-7.8 -6.2Z" fill="#dc143c"></path></g><g transform="translate(601 426)"><path d="M0 -10L7.8 -6.2L9.7 2.2L4.3 9L-4.3 9L-9.7 2.2L-7.8 -6.2Z" fill="#dc143c"></path></g><g transform="translate(290 290)"><path d="M0 -1L0.8 -0.6L1 0.2L0.4 0.9L-0.4 0.9L-1 0.2L-0.8 -0.6Z" fill="#dc143c"></path></g><g transform="translate(283 214)"><path d="M0 -12L9.4 -7.5L11.7 2.7L5.2 10.8L-5.2 10.8L-11.7 2.7L-9.4 -7.5Z" fill="#dc143c"></path></g></g></svg>